<svg xmlns="http://www.w3.org/2000/svg" fill="rgb(255, 192, 70)" viewBox="0 0 59 56"><path fill="rgb(255, 192, 70)" d="m0 7.667 1.82-1.81V1.81L3.64 0H59l-1.82 1.81v4.046l-1.82 1.81h-13.6l-3.64 3.62V44.19L36.3 46h-7.71l1.82-1.81V11.287l3.64-3.62z"></path><path fill="rgb(255, 192, 70)" d="m41.66 10-1.83 1.81v42.38L38 56h7.754l1.83-1.81V31.195L49.414 33v21.19L47.585 56h7.754l1.831-1.81V11.81L59 10H41.661m7.755 15.336-1.831-1.813v-5.857h1.83zM3.66 10l-1.83 1.81v42.38L0 56h7.754l1.83-1.81V33.009l1.83-1.81v22.99L9.585 56h7.754l1.831-1.81V11.81L21 10zm5.924 7.667h1.83v5.862l-1.83 1.81z"></path><path fill="rgb(255, 192, 70)" d="M38 48.333v5.857L36.185 56H19l1.814-1.81V11.81L22.63 10h7.685L28.5 11.81v32.903l-3.63 3.62z"></path></svg>